<svg xmlns="http://www.w3.org/2000/svg" viewBox="0 -168 1008 1008"><path fill="currentColor" d="M730 80l193 161-53 65-193-163zm-452 0l53 63-193 161-53-63zm185 258h63v220l167 99-31 51-199-118V338zm41-170c108 0 196 40 268 113 70 71 110 159 110 265 0 109-39 197-110 268S612 924 504 924s-197-39-268-110-110-159-110-268c0-106 40-194 110-265 72-73 160-113 268-113zm0 674c85 0 154-32 209-87s84-124 84-209c0-82-29-151-84-206-55-56-124-87-209-87s-154 31-209 87c-55 55-84 124-84 206 0 85 29 154 84 209s124 87 209 87z"/></svg>
