<svg xmlns="http://www.w3.org/2000/svg" viewBox="0 -234 798 1008"><path fill="currentColor" d="M236 149h1c-3-13-5-24-5-33 0-35 13-65 37-89 25-25 54-37 89-37s65 12 90 37l194 194c17 7 31 17 44 30 75 74 112 161 112 263 0 111-38 204-117 282-36 36-75 64-119 83 3 9 4 20 4 35 0 35-12 64-37 89-24 25-52 37-87 37s-65-12-90-37L155 806c-16-7-30-16-43-28C37 703 0 616 0 515c0-111 39-204 117-282 36-38 76-65 119-84zm93-64v-1c-17 16-16 43 0 59l54 55c-79 4-147 34-206 92-62 62-92 135-92 223 0 78 28 146 86 204 8 8 19 12 31 12 17 0 31-11 38-26 5-15 4-32-9-45-47-46-62-84-62-144 0-63 22-117 68-164 42-42 89-63 145-67l-53 54c-16 17-17 43 0 59 9 8 18 13 29 13 12 0 22-5 30-13l155-155L388 85c-8-9-18-13-30-13-11 0-20 4-29 13zm88 340l1-2c-16 16-35 24-59 24-46 0-82-34-85-77l-8 7c-40 35-55 81-55 135 0 48 12 76 50 114 20 20 28 44 23 71l99-98c17-17 37-25 60-25 21 0 42 9 57 22 15 15 25 35 26 56l7-8c35-40 56-82 56-133 0-24-3-44-11-61-7-16-19-34-39-53-19-19-26-42-23-71zm65 500l1 1c5-15 4-32-9-45l-57-56c80-3 149-34 208-92 62-63 92-137 92-223 0-78-28-145-87-204-8-8-17-12-29-12-19 0-34 11-39 26-7 15-5 33 8 46 46 46 62 84 62 144 0 64-22 117-68 163-40 40-88 63-144 67l53-53c13-13 14-30 9-45-7-15-21-26-38-26-12 0-23 4-31 12L258 784l155 155c8 8 19 12 31 12 17 0 31-11 38-26z"/></svg>
