<svg xmlns="http://www.w3.org/2000/svg" viewBox="0 -144 1008 1008"><path fill="currentColor" d="M857 300l-1 522c0 8-1 14-4 18s-5 7-6 9-4 5-8 8-7 5-9 6-6 4-12 8-10 7-12 8c-11 8-22 8-33 1s-17-17-17-30V340c0-13-5-21-16-27L349 108s-1-1-3-2l-6-3s-5-2-8-3-6-2-10-2h-12c-9 0-18 3-28 8-30 16-49 31-57 46l412 226c12 6 18 15 18 26v544c0 14-6 24-18 30-5 3-11 4-18 4s-12-1-16-3-39-24-106-65C301 794 198 731 188 725c-21-12-31-24-31-36l-6-518c-1-52 39-95 117-128 49-21 88-24 117-9l454 230c12 6 18 18 18 36z"/></svg>
