<svg xmlns="http://www.w3.org/2000/svg" viewBox="0 -144 1296 1008"><path fill="currentColor" d="M1166 297h37v152h-52l-68-114v114h-74l-15-34h-75l-14 34h-43c-50 0-72-26-72-75 0-51 23-78 75-78h35v34c-38-1-73-9-73 43 0 26 6 44 35 44h17l51-120h55l61 144V297h56l64 106V297zm130 338v57c-11 16-32 20-49 20h-71v-33h71c8 0 18-3 18-14 0-32-94 12-94-60 0-31 24-46 52-46h73v32h-66c-10 0-21 2-21 14 0 27 64 0 87 30zm-134 28c0 36-25 49-58 49h-71v-33h71c9 0 19-2 19-14 0-33-94 12-94-60 0-31 24-46 52-46h73v32h-67c-9 0-20 2-20 14 0 33 95-15 95 58zM735 296h37v153h-37V296zm191 383l85 1v32H890V559h121v32h-85v27h84v31h-84v30zM714 337c0 18-10 35-26 42 21 7 24 20 24 40v30h-36c-1-33 7-55-33-55h-39v55h-36V296l86 1c29 0 60 5 60 40zm156 263c0 17-9 34-26 41 20 7 24 20 24 40v31h-37v-26c0-26-8-30-32-30h-39v56h-37V559h87c29 0 60 5 60 41zm426 132v129c0 41-33 75-74 75H74c-41 0-74-34-74-75V479h62l14-34h31l15 34h122v-26l11 26h63l12-26v26h304v-55l6-1c5 0 5 4 5 8v48h157v-13c37 19 87 13 125 13l14-34h32l14 34h127v-32l19 32h103V267h-101v24l-14-24h-105v24l-12-24H863c-20 0-42 2-61 12v-12h-97v12c-11-10-26-12-41-12H311l-24 54-24-54H151v24l-12-24H44L0 367V147c0-41 33-75 74-75h1148c41 0 74 34 74 75v382h-67c-16 0-33 3-46 12v-12h-100c-14 0-33 2-43 12v-12H862v12c-14-9-33-12-49-12H695v12c-12-11-36-12-51-12H512l-30 32-28-32H258v212h193l31-33 29 33h118v-50h12c17 0 35 0 51-7v57h98v-55h4c6 0 7 0 7 6v49h298c16 0 36-3 49-13v13h95c18 0 37-1 53-9zM457 417h85v32H420V296h122v32h-85v28h83v31h-83v30zm249 192c0 62-67 51-109 51v52h-70l-45-51-47 51H291V559h146l45 50 46-50h117c34 0 61 12 61 50zM332 296h61v153h-37V330l-53 119h-32l-53-119v119h-74l-14-34H54l-14 34H1l65-153h54l62 145V296h59l48 104zm625 27l-25 61h50zm-284 22c0-14-12-17-23-17h-46v34h45c13 0 24-3 24-17zm157 262c0-14-13-16-24-16h-46v34h46c12 0 24-3 24-18zm-163 2c0-13-10-18-22-18h-48v38h47c13 0 23-6 23-20zm-106-34l-56 61 56 61V575zM327 679h89l42-44-39-44h-92v27h80v31h-80v30zM92 323l-25 61h50z"/></svg>
