<svg xmlns="http://www.w3.org/2000/svg" viewBox="0 -144 1296 1008"><path fill="currentColor" d="M1296 144v720c0 39-33 72-72 72H72c-39 0-72-33-72-72V144c0-39 33-72 72-72h1152c39 0 72 33 72 72zm-193 363c0-214-180-363-377-363H557c-199 0-364 149-364 363 0 197 165 357 364 357h169c197 0 377-160 377-357zm-216-4c0 182-147 330-330 330-181 0-329-148-329-330s148-329 329-329c183 0 330 147 330 329zm-121 0c0-88-56-164-134-195v391c78-31 134-107 134-196zM483 698V308c-79 31-134 107-134 195 0 89 55 165 134 195z"/></svg>
