<svg xmlns="http://www.w3.org/2000/svg" viewBox="0 -144 1296 1008"><path fill="currentColor" d="M1296 147v714c0 41-33 75-74 75H74c-41 0-74-34-74-75V147c0-41 33-75 74-75h1148c41 0 74 34 74 75zm-163 309l51 74h45l-59-78c28-6 43-24 43-53 0-36-24-56-67-56h-54v187h36v-74h5zM964 343v187h104v-31h-67v-51h64v-31h-64v-42h67v-32H964zM847 536h20l81-193h-40l-51 126-50-126h-40zm-66-98c0-56-45-102-101-102-57 0-102 46-102 102s45 102 102 102c56 0 101-46 101-102zm479 426V568c-90 56-407 236-919 332h883c20 0 36-16 36-36zM567 524v-43c-15 15-28 21-44 21-37 0-63-27-63-65 0-36 27-65 61-65 18 0 31 7 46 22v-44c-16-7-29-11-45-11-55 0-100 43-100 98s44 98 99 98c16 0 30-3 46-11zm-156-50c0-30-13-44-54-59-22-8-29-13-29-24s12-20 28-20c11 0 20 4 29 15l19-25c-15-14-34-21-55-21-33 0-58 23-58 54 0 26 12 39 46 51 14 6 21 9 25 11 7 5 11 11 11 19 0 15-12 27-28 27-18 0-32-9-40-25l-24 22c17 25 37 37 65 37 38 0 65-26 65-62zM231 343v187h36V343h-36zm-17 94c0-55-41-94-101-94H60v187h53c28 0 49-6 67-21 21-18 34-44 34-72zm961-37c0 20-12 30-36 30h-11v-57h12c23 0 35 10 35 27zm-999 37c0 18-7 36-20 47-11 10-27 15-50 15H96V375h10c23 0 38 4 50 15 12 12 20 29 20 47z"/></svg>
