<svg xmlns="http://www.w3.org/2000/svg" viewBox="0 -144 1296 1008"><path fill="currentColor" d="M1296 144v720c0 39-33 72-72 72H72c-39 0-72-33-72-72V144c0-39 33-72 72-72h1152c39 0 72 33 72 72zm-72 429c0-42-37-69-85-72v-2c43-6 68-35 68-68 0-43-36-68-84-70H853v286h276c55 0 95-29 95-74zm-413 64v-63c-29 15-66 29-112 33-81 6-130-33-130-103s49-109 130-103c46 4 82 18 112 33v-63c-60-15-117-18-117-18-198-9-254 69-254 151s56 160 254 151c0 0 57-2 117-18zM410 534V361H281v173c0 42-28 74-80 74-44 0-87-13-129-34v63c67 19 153 19 153 19 143 0 185-55 185-122zm677-92c0 19-13 32-29 35-2 1-6 1-9 1h-78v-73h78c3 0 7 1 9 1 16 2 29 16 29 36zm10 119c0 21-13 35-30 39-2 0-7 1-10 1h-86v-79h86c3 0 8 1 10 1 17 4 30 19 30 38z"/></svg>
