<svg xmlns="http://www.w3.org/2000/svg" viewBox="0 -144 1296 1008"><path fill="currentColor" d="M1296 144v720c0 39-33 72-72 72H72c-39 0-72-33-72-72V144c0-39 33-72 72-72h1152c39 0 72 33 72 72zm-202 705h-3c-1 1-2 2-3 2-1 1-1 2-1 2-1 1-1 3-1 4 0 0 0 1 1 3 0 0 0 1 1 2 1 0 2 1 3 1 1 1 2 1 3 1s2 0 3-1l2-1c1-1 1-2 2-2v-7c-1 0-1-1-2-2 0 0-2-1-2-2h-3zm-44 2v9h16V753h-16v40c-5-7-13-11-25-11-20 0-37 17-37 40s17 40 37 40c12 0 20-4 25-11zm-79-69c-10 0-16 4-20 11v-9h-16v76h16v-43c0-12 6-19 17-19 3 0 6 0 10 2l5-16c-4-2-9-2-12-2zm-75 69v9h17v-76h-17v9c-5-7-13-11-24-11-21 0-38 17-38 40s17 40 38 40c11 0 19-4 24-11zm-138-29c0 23 16 40 41 40 11 0 19-2 27-9l-8-14c-6 5-12 7-20 7-13 0-23-10-23-24 0-15 10-24 23-24 8 0 14 2 20 6l8-13c-8-6-16-9-27-9-25 0-41 17-41 40zm-17-40c-9 0-15 4-19 11v-9h-17v76h17v-43c0-12 5-19 16-19 3 0 7 0 10 2l5-16c-4-2-8-2-12-2zm-89 0c-22 0-38 16-38 40s17 40 39 40c11 0 22-3 31-11l-8-12c-6 5-14 8-22 8-11 0-20-5-23-18h57v-7c0-24-15-40-36-40zm-48 74l-5-14c-5 3-10 4-15 4-8 0-10-5-10-12v-35h27v-15h-27v-23h-17v23h-16v15h16v35c0 17 7 28 26 28 7 0 16-2 21-6zm-74-19c0-14-10-20-26-23l-8-1c-7-1-13-2-13-8 0-5 5-8 14-8 10 0 19 3 24 6l7-13c-8-5-18-8-31-8-19 0-31 9-31 25 0 12 9 19 26 22l8 1c9 1 13 4 13 8 0 6-6 9-17 9-12 0-20-4-26-8l-7 13c9 6 20 10 33 10 22 0 34-10 34-25zm-100 14v9h17v-76h-17v9c-5-7-13-11-24-11-21 0-38 17-38 40s17 40 38 40c11 0 19-4 24-11zm-93-33v42h17v-48c0-18-12-30-31-30-9 0-19 3-26 13-5-8-13-13-25-13-8 0-16 3-22 11v-9h-17v76h17v-42c0-14 7-20 18-20 12 0 17 7 17 20v42h17v-42c0-14 7-20 18-20s17 7 17 20zm757 44h-3l-1-1c-1-1-2-1-2-2v-5l2-2s1 0 1-1h5c1 1 1 1 2 1 1 1 1 1 1 2s1 2 1 3c0 0-1 1-1 2s0 1-1 2c-1 0-1 1-2 1h-2zm-89-40c0-14 9-24 23-24 13 0 23 10 23 24s-10 24-23 24c-14 0-23-11-23-24zm-153 0c0-14 8-24 22-24s23 10 23 24-9 24-23 24-22-11-22-24zm-201-25c11 0 18 6 20 18h-39c1-11 8-18 19-18zm-266 25c0-14 9-24 23-24s23 10 23 24-9 24-23 24-23-11-23-24zm708 35l2 3h2l-2-3h1c1-1 1-1 1-2s0-1-1-2h-5v7h1v-3h1zm2-3v2h-3v-2h3zm5-255v9h2v-12h-3l-3 8-4-8h-2v12h1v-9l4 7h2zm-17 9v-10h4v-2h-9v2h4v10h1zM667 192c149 122 151 354 0 476 46 31 102 48 158 48 158 0 286-128 286-286S983 144 825 144c-57 0-112 17-158 48zm-19 13c-145 114-146 336 0 450 146-114 145-336 0-450zm-19-13c-46-31-101-48-158-48-158 0-286 128-286 286s128 286 286 286c57 0 112-17 158-48-150-122-149-354 0-476z"/></svg>
