<svg xmlns="http://www.w3.org/2000/svg" viewBox="0 -144 1296 1008"><path fill="currentColor" d="M1296 144v720c0 39-33 72-72 72H72c-39 0-72-33-72-72V144c0-39 33-72 72-72h1152c39 0 72 33 72 72zm-72 366c0-42-9-75-27-99s-46-36-81-36c-72 0-116 53-116 139 0 47 12 83 35 105 21 21 51 31 91 31 36 0 69-8 90-22l-9-58c-21 11-45 17-72 17-17 0-28-3-36-10-9-8-14-20-16-38h140c0-3 1-23 1-29zM719 309c0-24-20-44-45-44-24 0-44 20-44 44 0 25 20 45 44 45 25 0 45-20 45-45zm263 196c0-45-8-79-25-101-15-19-36-29-63-29-24 0-45 10-65 32l-5-27h-74v363l84-14v-85c13 4 27 6 38 6 21 0 52-5 76-31 23-25 34-63 34-114zM632 380v265h85V380h-85zm-21 77v-78c-5-2-10-2-15-2-24 0-43 12-50 35l-6-32h-74v265h85V473c10-13 26-17 46-17 4 0 9 0 14 1zm-221-14h44l10-63h-54v-76l-72 12-10 64-26 5-10 58h35v123c0 32 8 54 25 67 14 12 34 17 62 17 22 0 35-4 45-6v-66c-5 1-17 4-25 4-16 0-24-9-24-29V443zM268 564c0-48-29-67-76-84-24-9-38-16-38-28 0-9 8-14 22-14 25 0 51 9 69 18l10-63c-14-7-43-18-83-18-29 0-53 8-70 22-18 14-27 36-27 61 0 46 29 66 75 83 29 10 39 18 39 29 0 12-10 18-27 18-21 0-57-11-80-24l-10 63c20 11 56 23 95 23 30 0 55-7 72-21 19-15 29-37 29-65zm877-76h-62c2-38 12-55 31-55s30 18 31 55zm-247 20c0 26-4 45-12 60-6 12-17 19-29 19-8 0-16-1-23-5V456c15-15 28-17 32-17 22 0 32 24 32 69z"/></svg>
