<svg xmlns="http://www.w3.org/2000/svg" viewBox="0 -144 1296 1008"><path fill="currentColor" d="M1296 144v720c0 39-33 72-72 72H72c-39 0-72-33-72-72V144c0-39 33-72 72-72h1152c39 0 72 33 72 72zm-72 541l-75-361h-72c-23 0-39 7-49 30L889 685h98c16-44 20-54 20-54h119s3 12 11 54h87zM897 411l13-78c-19-7-48-15-84-15-93 0-157 49-158 119 0 52 46 81 82 98 36 18 48 29 48 45 0 24-29 35-55 35-38 0-59-4-88-19l-13-6-13 81c22 10 62 19 105 19 97 1 161-48 162-123 0-41-25-72-79-98-32-16-52-28-52-45 0-15 17-31 53-31 31 0 54 5 70 14zm-361-87l-58 361h93l58-361h-93zm-38 0h-99l-91 246-9-50c-20-52-68-100-122-122l76 287h99zM299 520l-33-166c-4-23-22-30-42-30H73l-1 7c104 27 188 83 227 189zm812 37h-78s8-21 37-101c0 1 8-21 13-34l7 31c18 86 21 104 21 104z"/></svg>
