<svg xmlns="http://www.w3.org/2000/svg" viewBox="0 -144 1152 1008"><path fill="currentColor" d="M0 72h1152v864H0V72zm1044 428c0-151-8-216-43-263-7-10-19-16-28-23-36-25-201-35-392-35-192 0-365 10-400 35-10 8-22 13-30 23-35 46-42 112-42 263s8 217 42 263c8 11 20 16 30 23 35 26 208 37 400 37 191 0 356-10 392-37 9-7 22-11 28-23 36-46 43-112 43-263zm-202 67h116c-11 119-78 191-176 191-121 0-195-94-195-243s81-242 184-242c112 0 175 70 185 188H841c-3-48-28-75-65-75-43 0-68 45-68 134 0 64 11 125 72 125 39 0 58-34 62-78zm-400 0h116c-11 119-79 191-176 191-122 0-195-94-195-243s81-242 183-242c113 0 176 70 185 188H441c-4-48-28-75-66-75-42 0-67 45-67 134 0 64 11 125 72 125 39 0 57-34 62-78z"/></svg>
