<svg xmlns="http://www.w3.org/2000/svg" viewBox="0 -202 672 1008"><path fill="currentColor" d="M36 152h-1c25-25 55-37 90-37h420c35 0 65 12 89 37 25 24 37 54 37 89v504c0 35-12 64-37 88-25 25-52 38-88 38H126c-35 0-65-13-90-38-24-24-36-53-36-88V241c0-36 12-65 36-89zm425 89v-43H209v43c0 23 19 42 42 42h168c24 0 42-19 42-42zm84 546c24 0 42-19 42-42V241c0-24-18-43-42-43h-42v43c0 46-36 83-84 83H251c-46 0-84-37-84-83v-43h-42c-23 0-42 19-42 43v504c0 23 19 42 42 42h420zm-21-357c0 13-6 20-21 20H167c-13 0-21-7-21-20 0-12 9-21 21-21h336c12 0 21 9 21 21zm0 125c0 12-9 21-21 21H167c-12 0-21-9-21-21 0-13 8-20 21-20h336c15 0 21 7 21 20zm0 127c0 13-6 20-21 20H167c-13 0-21-7-21-20 0-12 9-21 21-21h336c12 0 21 9 21 21z"/></svg>
