<svg xmlns="http://www.w3.org/2000/svg" viewBox="0 -144 1089 1008"><path fill="currentColor" d="M829 345c143 0 260 116 260 260 0 140-110 253-250 258-7 1-10-2-10-9v-69c0-7 3-9 10-10 91-6 162-81 162-170 0-93-78-172-172-172h-85c-7 0-10-3-10-9l-3-30c-13-114-109-198-224-198-114 0-205 86-221 199l-4 27c0 7-4 9-10 9l-28 4c-87 13-155 81-155 170s71 164 162 170c7 1 9 3 9 10v69c0 7-2 10-9 9C111 858 0 745 0 605c0-122 84-226 200-253 32-143 159-247 307-247 145 0 270 101 305 240h17zm-338 92c-8-8-12-18-12-30 0-25 19-45 44-45 12 0 23 4 33 13l95 96c9 9 13 20 13 32s-4 22-13 31l-95 98c-26 17-51 15-65 0-9-10-12-23-12-35 0-11 3-22 12-30l22-20c-55 4-97 62-97 124 0 70 58 128 127 128 71 0 129-58 129-128 0-25 21-45 46-45s45 20 45 45c0 119-99 218-220 218-118 0-216-99-216-218 0-110 79-197 183-215z"/></svg>
