<svg xmlns="http://www.w3.org/2000/svg" viewBox="0 -144 864 1008"><path fill="currentColor" d="M864 443v125c0 8-7 18-16 20l-104 16c-6 18-13 34-22 51 19 27 40 52 60 77 4 4 6 9 6 14s-2 9-5 13c-14 18-89 101-109 101-5 0-10-2-14-5l-78-61c-16 9-34 16-51 22-4 34-7 70-16 104-3 9-10 16-21 16H370c-11 0-19-7-21-17l-15-103c-18-6-35-13-51-21l-79 60c-5 3-9 5-14 5s-10-2-14-6c-30-27-70-62-93-95-3-4-4-8-4-13s1-9 4-12c19-26 40-51 59-78-9-18-17-36-23-55L16 586c-9-2-16-11-16-21V440c0-8 7-19 15-20l105-16c5-18 13-34 22-51-19-27-40-53-60-78-4-4-6-8-6-13 0-6 2-9 5-13 13-19 89-101 109-101 5 0 10 2 14 6l78 60c16-9 34-16 51-22 4-34 7-70 16-104 3-9 10-16 21-16h124c11 0 19 7 21 17l15 103c18 6 35 13 51 21l80-60c3-3 8-5 13-5 6 0 11 2 15 6 29 27 68 62 92 95 3 4 4 8 4 13s-1 9-4 12c-19 26-40 51-59 78 9 18 17 36 23 55l103 15c9 2 16 11 16 21zm-288 61c0-79-65-144-144-144s-144 65-144 144 65 144 144 144 144-65 144-144z"/></svg>
