<svg xmlns="http://www.w3.org/2000/svg" viewBox="0 -144 1080 1008"><path fill="currentColor" d="M1080 177v78c0 9-73 17-84 18-4 10-10 20-17 29 5 11 29 68 29 78 0 1-1 3-2 4-7 4-67 40-70 40-7 0-50-57-55-65-6 0-11 1-17 1s-11-1-17-1c-5 8-48 65-55 65-3 0-63-36-70-40-1-1-2-3-2-4 0-10 24-67 29-78-7-9-13-19-17-29-11-1-84-9-84-18v-78c0-9 73-17 84-18 4-10 10-20 17-29-5-11-29-68-29-78 0-1 1-3 2-4 7-3 67-39 70-39 7 0 50 56 55 64 6 0 11-1 17-1s11 1 17 1c16-22 33-44 52-63l3-1c3 0 63 35 70 39 1 1 2 3 2 4 0 10-24 67-29 78 7 9 13 19 17 29 11 1 84 9 84 18zm0 576v78c0 9-73 17-84 18-4 11-10 20-17 29 5 11 29 68 29 78 0 1-1 3-2 4-7 4-67 40-70 40-7 0-50-57-55-65-6 0-11 1-17 1s-11-1-17-1c-5 8-48 65-55 65-3 0-63-36-70-40-1-1-2-3-2-4 0-10 24-67 29-78-7-9-13-18-17-29-11-1-84-9-84-18v-78c0-9 73-17 84-18 4-10 10-20 17-29-5-11-29-68-29-78 0-1 1-3 2-4 7-3 67-39 70-39 7 0 50 56 55 64 6 0 11-1 17-1s11 1 17 1c16-22 33-44 52-63l3-1c3 0 63 35 70 39 1 1 2 3 2 4 0 10-24 67-29 78 7 9 13 19 17 29 11 1 84 9 84 18zM720 453v104c0 7-6 16-13 17l-87 13c-5 15-11 29-18 43 16 23 32 43 51 65 2 3 3 6 3 11 0 4-1 8-3 11-12 15-75 83-91 83-5 0-9-1-12-3l-65-51c-14 7-28 13-43 17-3 29-5 60-13 88-2 7-9 13-17 13H308c-8 0-16-6-17-14l-13-86c-15-5-29-11-42-18l-67 51c-2 2-7 3-11 3s-8-1-12-4c-14-13-81-74-81-90 0-4 2-8 4-11 16-21 33-42 50-64-8-15-15-30-20-46l-86-14c-7-1-13-8-13-16V451c0-7 6-16 13-17l87-13c5-15 11-29 18-43-16-22-33-43-51-65-2-3-3-7-3-11s1-8 3-11c12-15 75-83 91-83 5 0 9 1 12 3l65 51c14-7 28-13 43-18 3-28 5-59 13-87 2-7 9-13 17-13h104c8 0 16 6 17 14l13 86c15 5 29 11 42 18l67-51c3-2 7-3 11-3s8 1 12 4c14 13 81 74 81 90 0 4-2 7-4 11-16 22-33 42-49 64 7 15 14 30 19 46l86 13c7 1 13 9 13 17zm216-237c0-39-33-72-72-72s-72 33-72 72c0 40 33 72 72 72 40 0 72-33 72-72zm0 576c0-39-33-72-72-72s-72 33-72 72c0 40 33 72 72 72 40 0 72-33 72-72zM504 504c0-79-65-144-144-144s-144 65-144 144 65 144 144 144 144-65 144-144z"/></svg>
