<svg xmlns="http://www.w3.org/2000/svg" viewBox="0 -144 1152 1008"><path fill="currentColor" d="M973 714l116-203c-1-3-1-5-1-8s1-6 2-9l-97-166-72 344 43 46c3-1 6-2 9-4zm-23 40h-46l-27 127zM294 913V754h-92zm-92-658l92-33V96zm560 249l204-213c-2-4-4-10-4-16v-1L840 62c-2 0-5-1-7-2L587 320zm217-201L773 516l134 142 74-351-2-3v-1zM608 737l-24-25-24 25h48zM311 588l76-81-76-79v160zm439-72L575 332 408 509l175 179zM575 308L814 55h-9L456 181zM313 62l-2 5v148l115-41L318 61c-1 0-3 1-5 1zm125 125l-127 46v175l86 89 167-177zm-144 53l-93 33s1 1 1 2c0 6-2 12-5 16l97 100V240zm-92 497h92V631l-95 99c1 2 2 5 3 7zm109-124v124h226l36-37-174-181zm14 340h3l192-199H311v188l2 4c5 1 9 3 12 7zm516-9l9-16 36-174H646l188 193c2-1 4-3 7-3zM630 737h260l13-59-142-150-166 173zm277 0h43c1-2 2-5 3-6l-36-39zM555 55H336l107 113L755 55H597c-5 6-13 9-21 9s-16-3-21-9zM172 307L63 496c1 2 1 5 1 7 0 3 0 6-2 9l117 202c3 1 6 3 9 4l106-112V411L188 301c-5 4-10 6-16 6zm426 646h219L624 754h-80L352 953h202c6-5 14-9 22-9s16 4 22 9zm554-450c0 16-11 29-26 32l-115 200c1 4 1 7 1 10 0 15-10 28-25 31L879 966c1 3 1 5 1 9 0 17-14 32-32 32-9 0-17-4-23-10H600c-5 6-14 11-24 11s-19-5-24-11H327c-5 6-14 11-24 11-17 0-32-14-32-32 0-4 1-8 2-11L165 776c-15-3-26-16-26-31 0-4 1-6 2-10L25 535c-14-3-25-16-25-32 0-15 11-28 26-31l112-194v-3c0-13 8-24 19-29L275 42c-2-3-3-7-3-10 0-18 15-32 32-32 10 0 19 4 25 12h223c5-8 14-12 24-12s19 4 24 12h224c6-8 15-12 25-12 17 0 32 14 32 32 0 3-1 7-2 10l116 202c17 0 31 14 31 31 0 6-2 11-4 15l105 183c14 2 25 15 25 30z"/></svg>
