<svg xmlns="http://www.w3.org/2000/svg" viewBox="0 -144 864 1008"><path fill="currentColor" d="M864 504c0 238-193 432-432 432S0 742 0 504 193 72 432 72s432 194 432 432zM432 144C233 144 72 305 72 504s161 360 360 360 360-161 360-360-161-360-360-360zm215 460v61c0 80-127 109-206 109-154 0-270-118-270-273 0-152 115-267 267-267 56 0 202 20 202 109v61c0 6-4 9-9 9h-67c-5 0-9-4-9-9v-39c0-35-68-52-114-52-105 0-178 76-178 185 0 113 76 196 182 196 41 0 118-15 118-51v-39c0-5 3-9 8-9h67c4 0 9 4 9 9z"/></svg>
