<svg xmlns="http://www.w3.org/2000/svg" viewBox="-2 -315 756 1008"><path fill="currentColor" d="M158 252h93V126h126v126h95c42 0 76 9 103 28 38 27 55 59 55 98v126H504V386c-7-5-17-8-32-8H157c-19 0-32 12-32 31v63c0 9 6 22 15 33 8 12 19 20 28 23l324 82c40 11 75 33 99 64 24 32 38 70 38 113v63c0 44-15 80-47 111-31 32-67 47-110 47h-95v126H251v-126h-94c-42 0-77-9-104-28-36-27-55-59-55-98V756h126v118c7 5 18 8 33 8h315c19 0 31-13 31-32v-63c0-9-6-21-14-33-9-11-19-20-28-23l-324-82C55 628 0 559 0 472v-63c0-43 16-79 47-110 31-32 68-47 111-47z"/></svg>
