<svg xmlns="http://www.w3.org/2000/svg" viewBox="0 -189 880 1008"><path fill="currentColor" d="M841 264c21 0 39 18 39 39v402c0 21-18 39-39 39H39c-21 0-39-18-39-39V303c0-21 18-39 39-39h802zm-18 151c5 0 8-3 8-7v-85c0-5-3-8-8-8h-85c-5 0-8 3-8 8v35c0 5 3 8 8 8h42v42c0 4 3 7 8 7h35zm-679-49c5 0 8-3 8-10v-33c0-5-3-8-8-8H59c-5 0-8 3-8 8v85c0 4 3 7 8 7h34c5 0 7-3 7-7v-42h44zm108 138c0 50 19 98 55 134s84 55 134 55 98-19 134-55 55-84 55-134-19-98-55-134-84-55-134-55-98 19-134 55-55 84-55 134zm287-99l-1 1c25 25 40 60 40 99 0 31-8 56-24 79 0-9-3-14-8-15l-55-26-23-11c9-7 16-14 23-29 4-11 6-21 6-32 0-9-1-15-2-18-9-34-26-50-54-50-29 0-47 15-56 47-3 8-5 28 6 53 5 15 13 22 22 29l-21 9-57 26c-5 1-8 6-8 15-17-24-26-49-26-78 0-39 16-74 41-99s60-41 99-41 73 16 98 41zM143 694c5 0 8-3 8-8v-35c0-5-3-8-8-8H99v-42c0-5-2-7-7-7H58c-5 0-8 2-8 7v85c0 5 3 8 8 8h85zm679 0c5 0 8-3 8-8v-85c0-5-3-7-8-7h-35c-5 0-8 2-8 7v42h-42c-5 0-8 3-8 10v33c0 5 3 8 8 8h85z"/></svg>
