<svg xmlns="http://www.w3.org/2000/svg" viewBox="0 -144 1008 1008"><path fill="currentColor" d="M583 538v-85 2c0-21-5-39-15-54-18-27-42-41-71-41s-53 12-72 35-28 57-28 102 9 79 26 102 40 35 69 35c33 0 58-13 76-40 10-15 15-34 15-56zm159 219h-4c-91 0-140-36-147-109-10 40-28 68-55 84s-58 24-92 24-63-5-86-15-43-25-61-45c-38-42-57-104-57-186s19-146 57-193 92-71 162-71 116 25 138 75l35-64h102v356c0 21 3 36 10 45s18 14 34 14c35 0 63-21 84-63s31-96 31-161-10-119-29-162-46-78-80-105c-69-55-157-82-264-82-110 0-204 35-282 105-38 34-68 77-90 130s-33 112-33 177c0 127 39 225 116 294s182 104 314 104c44 0 84-3 119-9s75-16 120-31l19 81c-77 25-163 37-259 37-168 0-297-43-388-128S20 658 20 511c0-96 22-181 65-256S188 122 264 81s162-61 258-61c74 0 141 11 201 32s109 50 147 87c79 76 118 171 118 285 0 222-82 333-246 333z"/></svg>
