<svg xmlns="http://www.w3.org/2000/svg" viewBox="0 -168 1008 1008"><path fill="currentColor" d="M378 464c53 0 53 167 0 167s-53-167 0-167zm252 0c53 0 53 167 0 167s-53-167 0-167zM410 74c11 2 53 23 126 69 72 45 104 110 94 195 10-4 33 2 75 17 41 16 49 59 20 128 7-2 34 9 80 30 47 21 63 63 47 132l-61 57c-14 13-33 27-57 45l118-69c30 12 57 36 83 71 27 36 10 81-53 134-89 55-183 70-283 51l-221-41c-87 2-165 28-211 29-41 1-85-39-82-124 3-84 78-126 126-126-10-2-24-27-38-73-14-45 26-90 120-135-6-6-14-28-21-69s29-75 106-101c-2 0-8-8-16-25-8-18-2-36 16-57 39-46 33-93 32-138zm261 642H337c55 49 112 96 167 96s112-47 167-96zM378 420c-47 0-83 55-83 128 0 71 36 124 83 124s83-53 83-124c0-73-36-128-83-128zm252 0c-47 0-83 55-83 128 0 71 36 124 83 124s83-53 83-124c0-73-36-128-83-128z"/></svg>
