<svg xmlns="http://www.w3.org/2000/svg" viewBox="0 -144 1008 1008"><path fill="currentColor" d="M896 444c5 40 5 80 0 120l98 57c-22 95-73 182-144 249l-99-57c-31 25-66 45-103 60v114c-47 14-95 21-144 21s-97-7-144-21V873c-37-15-72-35-103-60l-99 57C87 803 36 716 14 621l98-57c-5-40-5-80 0-120l-98-57c22-95 73-182 144-249l99 57c31-25 66-45 103-60V21C407 7 455 0 504 0s97 7 144 21v114c37 15 72 35 103 60l99-57c71 67 122 154 144 249zM504 684c99 0 180-81 180-180s-81-180-180-180-180 81-180 180 81 180 180 180z"/></svg>
