<svg xmlns="http://www.w3.org/2000/svg" viewBox="0 -168 1008 1008"><path fill="currentColor" d="M756 42c118 0 209 93 211 211-10 57-43 132-105 224-60 91-93 170-96 239-1 13-19 13-20 0-3-69-36-148-96-239-62-92-95-167-105-224 2-118 93-211 211-211zm0 126c-47 0-83 38-83 85s36 83 83 83 83-36 83-83-36-85-83-85zm-589-41h365c-24 41-37 87-38 136-1 41 26 98 63 163L85 897V212c0-48 35-85 82-85zm528 541L593 568l29-30c26 44 51 87 73 130zM193 968l311-311 311 311H193zm730-489v418L782 755c29-85 86-181 141-276zm-641 48c-46-2-73-20-73-50 0-29 25-41 35-43s18-4 26-4l17-2h10c63 30 61 87-15 99zm-50-241c0-29 18-42 36-41 37 3 53 41 53 73 0 31-24 41-37 39-34 0-52-37-52-71zm103 123l-16-12c-6-5-8-10-10-18 2-22 22-27 36-45 24-33 0-75-16-87h23l16-18h-83c-57 0-86 36-86 77 0 32 23 65 65 65h12l-6 16c2 12 6 22 14 27-46-4-125 38-111 71 0 32 30 59 87 59 71 0 106-37 106-76 0-30-13-46-31-59z"/></svg>
