<svg xmlns="http://www.w3.org/2000/svg" viewBox="0 -144 1008 1008"><path fill="currentColor" d="M442 762l-1-2c16-8 36-12 61-11s47 11 66 31 28 45 27 76-12 55-32 73-45 27-75 26-55-11-74-30-28-41-27-66 6-45 16-61 23-28 39-36zm268-649l4-2c57 42 86 103 86 184 0 45-14 87-42 126-10 15-38 45-89 80l-46 32c-28 20-43 39-48 55s-8 32-9 49c0 9-5 14-15 14H421c-11 0-16-4-16-12 1-35 3-62 6-80s10-34 21-47c23-27 58-56 105-88l24-16c14-10 25-21 33-33 19-26 28-51 28-76s-9-49-26-73-48-36-93-36-77 15-96 45-28 61-28 93H212c5-109 43-187 115-233 45-29 101-44 167-44 87 0 159 21 216 62z"/></svg>
