<svg xmlns="http://www.w3.org/2000/svg" viewBox="0 -144 1008 1008"><path fill="currentColor" d="M765 315l-3-2c20-29 27-61 21-96s-23-63-51-84-59-28-93-22-61 24-81 53c-15 22-18 40-10 55 8 14 21 28 39 41 4 3 11 8 21 15s17 12 21 15 11 8 20 15 16 12 20 15 10 7 18 12 14 8 18 9 9 2 15 3 11 0 15-2c12-6 22-15 30-27zm127-77c9 51 8 100-3 147s-32 88-63 123-69 57-115 65-90 9-131 2L460 771l-70 13-104 168c-5 7-12 14-21 20s-18 10-26 11l-76 14c-8 1-16-1-23-6s-10-12-12-21l-17-99c-2-9-1-19 1-30s6-20 11-27l261-389c-42-84-53-159-33-224 20-64 64-114 132-151 32-17 66-29 102-36 72-13 138 2 198 46s96 103 109 178z"/></svg>
