<svg xmlns="http://www.w3.org/2000/svg" viewBox="-3 -191 1008 1008"><path fill="currentColor" d="M748 132h-1c51 35 93 77 128 128 4 5 6 11 6 18 0 3-1 7-2 10-16 43-45 73-89 89-9 4-17 3-26-4-50-36-92-78-128-128-4-7-6-13-6-18 0-3-1-7 2-10 16-44 46-73 89-89 9-4 19-3 27 4zm-87 94h-1c34 48 74 86 121 120 34-12 57-34 69-68-35-47-73-86-121-121-34 12-56 35-68 69zm-98 306l-1 1c42 23 84 35 128 35 70 0 129-25 177-73 51-51 75-109 75-179 0-68-24-127-75-177-50-51-109-75-177-75-70 0-128 24-179 75-48 48-73 107-73 177 0 44 12 86 35 128l-45 45L60 855v91h89l45-45c12-12 28-18 45-18h73v-63c0-34 30-64 64-64h63v-75c0-17 6-31 18-43l61-61 35-36zM397 430h4c-15-39-22-77-22-115 0-87 31-160 93-222C534 30 607 0 694 0s160 30 222 93c63 62 93 135 93 222s-30 160-93 222c-62 62-135 93-222 93-38 0-76-7-115-22l-75 73v75c0 34-30 64-64 64h-63v63c0 34-30 64-64 64h-73l-45 45c-12 12-24 18-39 18H61c-34 0-64-30-64-64v-95c0-13 6-27 18-39z"/></svg>
