<svg xmlns="http://www.w3.org/2000/svg" viewBox="0 -189 902 1008"><path fill="currentColor" d="M593 939H18c-12 0-18-5-18-16V329L262 69h331c12 0 17 5 17 16v450c0 11-5 16-17 16h-65c-12 0-18-5-18-16V169H297v177c0 12-5 18-17 18H100v475h410v-30c0-12 6-18 18-18h65c12 0 17 6 17 18v114c0 11-5 16-17 16zm106-411v-2c4-3 8-3 12 0l187 133c7 3 7 18 0 21L713 814c-11 7-20 5-20-10v-63H524c-9 0-14-5-14-14V613c0-8 5-12 14-12h167v-63c0-5 3-9 8-10zM193 715h-30v-93h52c23 0 33 11 33 32 0 20-10 31-33 31h-22v30zm110 0h-41v-93h41c35 0 51 14 51 45 0 32-16 48-51 48zm69-93h71v24h-43v10h41v23h-41v36h-28v-93zm-161 39c11 0 11-15 0-15h-18v15h18zm92 30c16 0 24-8 24-24 0-15-8-21-24-21h-14v45h14z"/></svg>
