<svg xmlns="http://www.w3.org/2000/svg" viewBox="0 0 63.956 63.294"><path fill="#B3D258" d="M15.122 48.687l24.63-42.662a16.434 16.434 0 0 1 1.863-2.632c-4.625-5.277-10.943-4.4-15.004 2.632L1.98 48.687c-4.64 8.034-.845 14.607 8.431 14.607h13.144c-9.278 0-13.073-6.573-8.433-14.607z"/><path fill="#808285" d="M37.462 48.687l15.321-26.54-6.57-11.381L24.32 48.687c-4.637 8.034-.844 14.607 8.433 14.607h13.141c-9.276 0-13.072-6.573-8.432-14.607z"/><path fill="#B3D258" d="M59.802 48.687l4.154-7.194-6.571-11.379-10.724 18.573c-4.637 8.034-.844 14.607 8.433 14.607h4.583c1.593 0 3.024-.195 4.28-.557-6.055-1.745-7.997-7.396-4.155-14.05z"/></svg>
