<svg xmlns="http://www.w3.org/2000/svg" viewBox="-2 -191 1008 1008"><path fill="currentColor" d="M441 756V630h126v126H441zm63-504l-2 2c49 0 92 14 130 43s58 65 59 113c0 47-15 82-39 107-25 23-54 40-88 51H438c5-29 26-50 64-63s59-34 64-63c-1-32-31-62-63-62s-62 30-63 62H314c2-50 21-93 59-131s81-59 131-59zM502 2c145 0 260 52 356 148s148 211 148 356-52 260-148 356-211 148-356 148-261-52-357-148C49 767-2 651-2 506s51-261 147-356C241 54 357 2 502 2zm0 882c109 0 195-38 267-110s111-159 111-268-39-195-111-267-158-111-267-111-196 39-268 111-110 158-110 267 38 196 110 268 159 110 268 110z"/></svg>
