<svg xmlns="http://www.w3.org/2000/svg" viewBox="-2 -202 588 1008"><path fill="currentColor" d="M588 535l-1 2c0 83-28 149-86 208-56 56-125 85-208 85-82 0-151-29-209-85C26 687-2 618-2 536s28-151 86-209 127-86 209-86 151 28 209 86c58 59 86 125 86 208zm-295-83l-2 1c-23 0-42-18-42-41v-80c-84 17-145 79-162 163h79c24 0 42 19 42 42s-18 41-42 41H87c17 84 80 146 163 165v-80c0-23 19-42 42-42 24 0 42 19 42 42v80c82-19 147-81 164-165h-80c-23 0-42-18-42-41s19-42 42-42h80c-17-83-79-147-163-164v80c0 23-18 41-42 41z"/></svg>
