<svg xmlns="http://www.w3.org/2000/svg" viewBox="0 -144 1008 1008"><path fill="currentColor" d="M846 507l162 1v121H889c-17 54-44 102-81 145s-82 76-135 100-108 36-165 36c-114 0-210-39-289-118-12-12-18-26-18-43s6-31 18-43 26-18 43-18 31 6 43 18c55 55 119 83 191 83s134-21 185-63 84-95 98-159c9-40 31-60 67-60zm-617-61l-1 1c-9 40-31 60-67 60H0V386h119c26-83 74-151 145-204s151-79 240-79c55 0 107 10 156 31s92 50 129 87c12 12 18 26 18 43s-6 31-18 43-26 18-43 18-31-6-43-18c-55-55-119-83-191-83s-134 21-185 63-84 95-98 159zm114 58v2c0-45 16-83 47-114s69-47 114-47c29 0 56 7 81 21s45 34 59 59 21 52 21 81c0 45-16 83-47 114s-69 47-114 47-83-16-114-48-47-70-47-115z"/></svg>
