<svg xmlns="http://www.w3.org/2000/svg" viewBox="0 -144 1008 1008"><path fill="currentColor" d="M288 504c0-40-32-72-72-72s-72 32-72 72 32 72 72 72 72-32 72-72zm576 288c0-40-32-72-72-72s-72 32-72 72 32 72 72 72 72-32 72-72zm0-576c0-40-32-72-72-72s-72 32-72 72 32 72 72 72 72-32 72-72zm144 576c0 119-97 216-216 216s-216-97-216-216c0-9 1-18 2-27L366 659c-39 38-92 61-150 61C97 720 0 623 0 504s97-216 216-216c58 0 111 23 150 61l212-106c-1-9-2-18-2-27C576 97 673 0 792 0s216 97 216 216-97 216-216 216c-58 0-111-23-150-61L430 477c1 9 2 18 2 27s-1 18-2 27l212 106c39-38 92-61 150-61 119 0 216 97 216 216z"/></svg>
