<svg xmlns="http://www.w3.org/2000/svg" viewBox="0 -144 1080 1008"><path fill="currentColor" d="M1068 576c0 19-8 38-21 51L771 903c-13 14-32 21-51 21-29 0-44-13-63-33l264-264c13-13 21-32 21-51s-7-38-21-51L519 123c-29-28-83-51-123-51h126c40 0 94 23 123 51l402 402c14 13 21 32 21 51zm-216 0c0 19-8 38-21 51L555 903c-13 14-32 21-51 21s-38-8-51-21L51 501C23 472 0 418 0 378V144c0-39 33-72 72-72h234c40 0 94 23 123 51l402 402c14 13 21 32 21 51zM252 252c0-40-32-72-72-72s-72 32-72 72 32 72 72 72 72-32 72-72z"/></svg>
