<svg xmlns="http://www.w3.org/2000/svg" viewBox="0 -168 1008 1008"><path fill="currentColor" d="M742 266l59-59c81 80 122 181 122 297s-41 215-124 297c-80 81-179 122-295 122s-216-40-297-122C125 720 85 620 85 504s41-215 122-295c82-83 181-124 297-124h41v346c30 16 44 40 44 73 0 45-40 85-85 85s-85-40-85-85c0-33 14-57 44-73v-88c-73 21-126 82-126 161 0 93 74 167 167 167s167-74 167-167c0-43-15-83-49-118l59-59c49 49 75 108 75 177s-26 130-75 179-108 73-177 73-130-24-179-73-73-110-73-179c0-124 91-226 211-248v-85c-83 10-154 48-211 111s-85 137-85 222c0 93 33 172 99 238s145 99 238 99 171-34 236-99c67-67 101-145 101-238s-34-173-99-238z"/></svg>
