<svg xmlns="http://www.w3.org/2000/svg" viewBox="0 -189 1008 1008"><path fill="currentColor" d="M866 293l126 189c11 15 16 33 16 53v189c0 55-40 95-94 95h-36c-16 56-64 94-122 94s-106-38-122-94H469c-16 56-64 94-122 94-59 0-107-38-123-94h-35c-54 0-94-40-94-95v-94c-55 0-95-40-95-95V189c0-54 40-95 95-95h472c54 0 95 41 95 95v63h126c35 0 61 13 78 41zM567 567c19 0 32-13 32-32V189c0-19-13-32-32-32H95c-19 0-32 13-32 32v346c0 19 13 32 32 32h472zm189-221c12 0 19 5 26 14l94 142c4 5 6 11 6 18v47c0 19-14 31-31 31H725c-19 0-32-12-32-31V378c0-19 13-32 32-32h31zm-31 221h126v-47l-95-142h-31v189zm189 189v-1c17 0 31-13 31-32V534c0-5-2-11-6-16L813 329c-5-9-13-14-25-14H662v220c0 55-41 95-95 95H158v94c0 19 12 32 31 32h35c16-56 64-95 123-95 58 0 106 39 122 95h165c16-56 64-95 122-95s106 39 122 95h36zm-200 73h1c21 21 56 31 84 3 29-29 22-66 1-89-23-21-60-29-89 0-28 28-20 63 3 86zm-408 0h1c21 21 56 31 84 3 29-29 21-66 0-89-23-21-60-29-89 0-28 28-19 63 4 86z"/></svg>
