<svg xmlns="http://www.w3.org/2000/svg" viewBox="0 -144 1008 1008"><path fill="currentColor" d="M1008 180v576c0 42-44 36-72 36 0 79-65 144-144 144s-144-65-144-144H432c0 79-65 144-144 144s-144-65-144-144h-36c-28 0-72 6-72-36 0-20 16-36 36-36V540c0-40-6-84 25-115l112-112c14-14 41-25 61-25h90V180c0-20 16-36 36-36h576c20 0 36 16 36 36zM864 792c0-39-33-72-72-72s-72 33-72 72 33 72 72 72 72-33 72-72zM144 487v17h216V360h-89c-2 0-11 3-12 5L149 475c-2 1-5 10-5 12zm216 305c0-39-33-72-72-72s-72 33-72 72 33 72 72 72 72-33 72-72z"/></svg>
