<svg xmlns="http://www.w3.org/2000/svg" viewBox="0 -144 864 1008"><path fill="currentColor" d="M792 790c0 92-60 146-150 146H150C60 936 0 882 0 790c0-102 18-256 123-306L72 360h120c-7-23-12-47-12-72 0-6 1-12 1-18-22-5-109-22-109-54 0-33 96-51 118-56 12-42 40-106 69-139 11-13 25-21 43-21 33 0 60 35 94 35s61-35 95-35c17 0 31 8 42 21 29 33 57 97 69 139 22 5 118 23 118 56 0 32-87 49-109 54 3 30-1 61-11 90h120l-46 127c101 52 118 203 118 303zM558 296c-1-1-1-2-2-3-5-4-46-5-54-5-32 0-63 4-94 11-4 1-8 1-12 1s-8 0-12-1c-31-7-62-11-94-11-8 0-49 1-54 5-1 1-1 2-2 3 1 5 1 10 2 15 4 5 6 3 9 10 14 40 21 70 72 70 72 0 52-66 76-66h6c24 0 4 66 76 66 51 0 58-30 72-70 3-7 5-5 9-10 1-5 1-10 2-15zM414 612l54 252 72-360-72 36zM252 504l72 360 54-252-54-72z"/></svg>
