<svg xmlns="http://www.w3.org/2000/svg" viewBox="0 -202 798 1008"><path fill="currentColor" d="M42 367c0-59 20-108 62-150s91-61 149-61c59 0 108 19 148 61 42 42 62 91 62 150 0 58-20 107-62 149-40 40-89 61-148 61-58 0-107-21-149-61-42-42-62-91-62-149zm756 168c0 23-19 41-42 41H504c-23 0-42-18-42-41s19-42 42-42h252c23 0 42 19 42 42zM70 670h-1c47-35 107-51 182-51 74 0 133 16 180 51 48 34 72 73 72 117 0 21-23 41-73 57-48 17-106 26-178 26-76 0-135-7-182-26-47-16-70-36-70-57 0-44 23-83 70-117z"/></svg>
