<svg xmlns="http://www.w3.org/2000/svg" viewBox="0 -202 798 1008"><path fill="currentColor" d="M252 157c59 0 108 19 148 61 42 42 62 91 62 150 0 58-20 107-62 149-40 40-89 61-148 61-58 0-107-21-149-61-42-42-62-91-62-149 0-59 20-108 62-150s91-61 149-61zm420 252v84h84c23 0 42 19 42 42s-19 41-42 41h-84v85c0 23-19 41-42 41s-42-18-42-41v-85h-84c-23 0-42-18-42-41s19-42 42-42h84v-84c0-23 19-42 42-42s42 19 42 42zM431 845h-1c-48 17-106 26-178 26-76 0-135-7-182-26-47-16-70-36-70-57 0-44 23-83 70-117 47-35 107-51 182-51 74 0 133 16 180 51 48 34 72 73 72 117 0 21-23 41-73 57z"/></svg>
