<svg xmlns="http://www.w3.org/2000/svg" viewBox="-1 -144 1080 1008"><path fill="currentColor" d="M1008 144c0 79-65 144-144 144s-144-65-144-144S785 0 864 0s144 65 144 144zm72 343c0 62-53 89-109 89h-75c-38-45-91-70-150-72 30-42 46-93 46-144 0-12-1-25-3-37 24 8 49 13 75 13 76 0 134-48 146-48 72 0 70 153 70 199zM756 360c0 119-97 216-216 216s-216-97-216-216 97-216 216-216 216 97 216 216zM360 144c0 79-65 144-144 144S72 223 72 144 137 0 216 0s144 65 144 144zm576 718c0 91-60 146-150 146H294c-90 0-150-55-150-146 0-127 30-322 195-322 19 0 89 78 201 78s182-78 201-78c165 0 195 195 195 322zM334 504c-59 2-112 27-149 72h-76C53 576 0 549 0 487c0-46-2-199 70-199 12 0 70 48 146 48 26 0 51-5 75-13-2 12-3 25-3 37 0 51 16 102 46 144z"/></svg>
