<svg xmlns="http://www.w3.org/2000/svg" viewBox="0 -144 1152 1008"><path fill="currentColor" d="M522 594v108c0 39 33 72 72 72h144v134c-28 20-62 28-96 28H150C60 936 0 882 0 790c0-127 30-322 195-322 9 0 15 4 22 10 54 42 108 68 179 68s125-26 179-68c7-6 13-10 22-10 48 0 90 18 122 54H594c-39 0-72 33-72 72zm414-216v198h198c10 0 18 8 18 18v108c0 10-8 18-18 18H936v198c0 10-8 18-18 18H810c-10 0-18-8-18-18V720H594c-10 0-18-8-18-18V594c0-10 8-18 18-18h198V378c0-10 8-18 18-18h108c10 0 18 8 18 18zM396 504c-119 0-216-97-216-216S277 72 396 72s216 97 216 216-97 216-216 216z"/></svg>
