<svg xmlns="http://www.w3.org/2000/svg" viewBox="0 -146 1008 1008"><path fill="currentColor" d="M797 2l-2-1c0-3 2-5 6-5s6 2 6 5c9 71 31 133 67 186 14 22 28 43 42 63 32 47 48 93 48 139s-16 85-48 117-70 48-114 48-82-16-114-48-48-70-48-114c0-47 16-94 48-141 14-20 28-41 42-63 36-53 58-115 67-186zM194 3l-2-1c0-3 2-5 6-5s6 2 6 5c9 71 31 133 67 186 14 22 28 43 42 63 32 47 48 93 48 139s-16 85-48 117-70 48-114 48-82-16-114-48-48-70-48-114c0-47 16-94 48-141 14-20 28-41 42-63 36-53 58-115 67-186zm304 455l-2-1c0-3 2-5 6-5s6 2 6 5c9 71 31 133 67 186 14 22 28 43 42 63 32 47 48 93 48 139s-16 85-48 117-70 48-114 48-82-16-114-48-48-70-48-114c0-47 16-94 48-141 14-20 28-41 42-63 36-53 58-115 67-186z"/></svg>
