<svg xmlns="http://www.w3.org/2000/svg" viewBox="0 -168 1008 1008"><path fill="currentColor" d="M504 86c120 0 219 43 297 122 79 78 122 177 122 297s-43 219-122 297c-78 79-177 122-297 122s-219-43-297-122C128 724 85 625 85 505c0-118 43-216 122-295 79-81 177-124 297-124zm167 252h124c-41-71-104-124-183-150 26 45 46 96 59 150zM504 170c-35 51-63 107-81 168h162c-18-61-46-117-81-168zM179 590h142c-8-55-8-115 0-170H179c-14 55-14 115 0 170zm158 82H213c41 71 104 124 183 150-26-45-46-97-59-150zM213 338h124c13-54 33-105 59-150-79 26-142 79-183 150zm291 502c35-52 63-107 81-168H423c18 61 46 116 81 168zm-98-250h196c8-55 8-115 0-170H406c-8 55-8 115 0 170zm206 232c79-26 142-79 183-150H671c-13 53-33 105-59 150zm75-232h142c14-55 14-115 0-170H687c8 55 8 115 0 170z"/></svg>
